<?xml version="1.0" encoding="UTF-8"?>
<svg id="Layer_2" data-name="Layer 2" xmlns="http://www.w3.org/2000/svg" viewBox="0 0 494.17 515.18">
  <defs>
    <style>
      .cls-1 {
        fill: none;
        stroke: #231f20;
        stroke-linecap: round;
        stroke-linejoin: round;
        stroke-width: 14px;
      }
    </style>
  </defs>
  <g id="Layer_9" data-name="Layer 9">
    <circle class="cls-1" cx="397.42" cy="116.01" r="20.89"/>
    <circle class="cls-1" cx="237.21" cy="27.89" r="20.89"/>
    <circle class="cls-1" cx="74.76" cy="136.47" r="20.89"/>
    <circle class="cls-1" cx="156.21" cy="296.24" r="20.89"/>
    <circle class="cls-1" cx="308.78" cy="330.06" r="20.89"/>
    <g>
      <g>
        <path class="cls-1" d="M361.43,379.36c15.81,0,25.68,17.1,17.78,30.79l-50.68,87.77c-7.9,13.68-27.64,13.68-35.55,0l-43.44-75.23"/>
        <path class="cls-1" d="M462.33,164.92c19.09,0,31.02,20.67,21.48,37.21l-61.24,106.08c-9.56,16.54-33.42,16.54-42.97,0l-35.44-61.39"/>
        <path class="cls-1" d="M219.14,213.93c-.79-.95-1.49-1.99-2.14-3.1l-57.63-99.82c-8.99-15.56,2.25-35.02,20.21-35.02h115.26c17.98,0,29.2,19.46,20.22,35.02l-31.12,53.91"/>
        <polyline class="cls-1" points="462.33 164.92 339.85 164.92 283.94 164.92 237.21 164.92"/>
        <polyline class="cls-1" points="159.37 111.01 219.14 213.93 241.8 252.98"/>
        <polyline class="cls-1" points="361.43 379.36 275.64 379.36 260.09 379.36 220.27 379.36"/>
      </g>
      <g>
        <path class="cls-1" d="M9.62,214.28c-7.45-12.9,1.85-29.03,16.75-29.03h95.58c14.9,0,24.21,16.12,16.75,29.03l-31.13,53.93"/>
        <path class="cls-1" d="M133.68,433.83l-34.71-60.11c-.94-1.64-1.6-3.32-2.01-5.02-2.71-11.19,5.69-22.9,18.13-22.9"/>
        <path class="cls-1" d="M202.77,408.94l-25.61,44.36c-7.17,12.4-25.08,12.4-32.23,0l-11.03-19.09"/>
        <polyline class="cls-1" points="9.62 214.28 96.97 368.7 133.68 433.83 133.9 434.21"/>
        <line class="cls-1" x1="202.77" y1="408.94" x2="321.5" y2="208.24"/>
        <polyline class="cls-1" points="192.44 345.8 115.09 345.8 86.34 345.8"/>
      </g>
    </g>
  </g>
</svg>